<svg xmlns="http://www.w3.org/2000/svg" width="24" height="24" viewBox="0 0 823 782" fill="none" class="h-5.5 w-5.5 dr:w-6 dr:h-6" role="img">
<path d="M411.37 407.516C214.47 407.516 46.3899 547.177 8.66992 738.096L0 782H822.75L814.07 738.096C776.35 547.178 608.28 407.516 411.37 407.516ZM421.44 481.218C561.96 485.371 683.06 576.151 728.85 704.856L730.05 708.445H92.6699L93.8901 704.856C140.78 573.086 266.6 481.071 411.37 481.071L421.44 481.219V481.218ZM411.37 0.41868C300.36 0.41868 210.37 90.4097 210.37 201.422C210.37 312.434 300.36 402.424 411.37 402.424C522.38 402.424 612.38 312.434 612.38 201.422C612.38 90.4097 522.38 0.41868 411.37 0.41868ZM411.37 73.9716C481.76 73.9716 538.82 131.031 538.82 201.422C538.82 271.812 481.76 328.872 411.37 328.872C340.98 328.872 283.92 271.812 283.92 201.422C283.92 131.031 340.98 73.9716 411.37 73.9716Z" fill="currentColor"></path>
<title>user</title></svg>