<svg class="cmsb2392-hidden cmsb2392-md:block" width="400" height="112" fill="none" xmlns="http://www.w3.org/2000/svg">
    <g clip-path="url(#a)" fill="#fff">
        <path d="M29.495 24.011a2.314 2.314 0 0 0 2.316 2.21 2.314 2.314 0 0 0 2.316-2.21l1.17-20.284a3.426 3.426 0 0 0-1.01-2.715A3.44 3.44 0 0 0 31.81 0c-.905 0-1.784.346-2.476 1.012a3.426 3.426 0 0 0-1.012 2.715l1.172 20.284ZM42.192 34.845a2.348 2.348 0 0 0-3.194.852c-1.438 2.476-4.126 4.153-7.187 4.153-3.062 0-5.75-1.677-7.188-4.153-.639-1.118-2.076-1.49-3.194-.852-1.118.639-1.49 2.076-.852 3.194 2.236 3.887 6.415 6.496 11.207 6.496 4.792 0 8.97-2.61 11.233-6.469a2.348 2.348 0 0 0-.851-3.194M22.227 26.007a2.32 2.32 0 0 0 2.822 1.544 2.323 2.323 0 0 0 1.677-2.742l-3.7-17.755c-.186-.905-.745-1.757-1.624-2.236-.798-.48-1.73-.559-2.555-.346-.826.213-1.57.772-2.05 1.57-.506.879-.586 1.864-.266 2.742l5.696 17.223ZM16.105 30.08c.665 1.038 2.05 1.358 3.114.746a2.323 2.323 0 0 0 .906-3.088l-7.161-14.242a3.166 3.166 0 0 0-2.077-1.677c-.851-.24-1.73-.08-2.449.32a3.342 3.342 0 0 0-1.517 1.97c-.24.931-.053 1.89.426 2.635l8.758 13.336ZM38.599 27.525a2.32 2.32 0 0 0 2.821-1.544l5.697-17.223a3.499 3.499 0 0 0-.266-2.768 3.343 3.343 0 0 0-2.05-1.571c-.825-.213-1.757-.133-2.556.346a3.351 3.351 0 0 0-1.623 2.236l-3.7 17.755a2.323 2.323 0 0 0 1.677 2.742M44.428 30.826c1.065.612 2.45.292 3.115-.746L56.3 16.744c.505-.746.665-1.704.426-2.636a3.342 3.342 0 0 0-1.518-1.97 3.13 3.13 0 0 0-2.449-.319c-.931.24-1.65.878-2.076 1.677l-7.16 14.242c-.56 1.118-.16 2.475.904 3.088Z"></path>
        <path d="M63.009 85.822 50.55 69.292c-2.236-2.982-3.567-6.682-3.54-10.595 0-3.914 1.304-7.614 3.54-10.595l12.458-16.53c1.278-2.237.532-5.085-1.704-6.363-2.236-1.278-5.084-.532-6.362 1.704l-7.8 13.496a17.615 17.615 0 0 1-15.332 8.811c-6.123 0-12.06-3.141-15.333-8.811l-7.8-13.496C7.4 24.677 4.525 23.93 2.316 25.209.08 26.487-.665 29.362.612 31.571L13.07 48.102c2.236 2.981 3.567 6.681 3.54 10.595 0 3.913-1.304 7.613-3.54 10.594L.64 85.822c-1.278 2.236-.533 5.084 1.704 6.362 2.236 1.278 5.084.533 6.362-1.703l7.8-13.497a17.615 17.615 0 0 1 15.332-8.81c6.123 0 12.059 3.14 15.333 8.81l7.8 13.497c1.278 2.236 4.126 2.981 6.362 1.703 2.236-1.278 3.008-4.152 1.703-6.362M394.983 51.855c.453 0 .906-.24.906-.878 0-.64-.347-.879-.906-.879h-1.703v1.757h1.703Zm1.997 3.008h-1.251l-1.038-1.996h-1.411v1.996h-1.092v-5.75h2.769c1.224 0 1.97.746 1.97 1.89 0 .826-.479 1.491-1.198 1.757l1.224 2.13.027-.027Zm-2.662-7c-2.316 0-4.179 1.916-4.179 4.232 0 2.316 1.89 4.259 4.179 4.259 2.289 0 4.179-1.917 4.179-4.26 0-2.342-1.863-4.232-4.179-4.232Zm0 9.45a5.21 5.21 0 0 1-5.218-5.218 5.226 5.226 0 0 1 5.218-5.218 5.226 5.226 0 0 1 5.217 5.218 5.226 5.226 0 0 1-5.217 5.217ZM340.946 60.56c-3.807-.586-6.07-1.145-6.07-2.742 0-1.145 1.491-2.449 5.138-2.449 2.129 0 3.647.612 4.472 1.49.586.613 1.491.826 2.316.613l4.605-1.251c.719-.186 1.091-1.012.719-1.65-2.13-3.86-6.549-6.23-12.112-6.23-8.891 0-13.124 5.005-13.124 9.823 0 6.868 7.321 8.332 12.804 9.184 5.378.825 6.442 1.544 6.442 3.274s-2.395 2.742-5.537 2.742c-1.89 0-4.339-.639-5.749-2.29-.639-.718-1.571-1.09-2.503-.824l-4.578 1.224c-.692.186-1.065.958-.772 1.597 2.129 4.659 7.16 7.454 13.602 7.454 7.853 0 13.47-4.286 13.47-10.382 0-6.681-5.484-8.332-13.123-9.583ZM269.844 55.582h-16.451V45.76h20.391c.719 0 1.331-.586 1.331-1.331v-4.686c0-.718-.586-1.33-1.331-1.33h-26.939c-.719 0-1.331.585-1.331 1.33v38.732c0 .719.585 1.331 1.331 1.331h5.217c.719 0 1.331-.585 1.331-1.33V62.928h16.451c.719 0 1.331-.586 1.331-1.33v-4.686c0-.719-.585-1.33-1.331-1.33ZM285.576 38.412h-5.217c-.735 0-1.331.596-1.331 1.331v38.705c0 .736.596 1.332 1.331 1.332h5.217a1.33 1.33 0 0 0 1.331-1.332V39.743a1.33 1.33 0 0 0-1.331-1.33ZM306.633 73.177c-4.366 0-7.88-3.753-7.88-8.65 0-4.899 3.514-8.812 7.88-8.812 4.365 0 7.852 3.94 7.852 8.811s-3.513 8.651-7.852 8.651Zm14.401-24.09h-4.872c-.718 0-1.331.585-1.331 1.33v1.97c-2.395-2.502-5.67-3.94-9.423-3.94-7.986 0-14.614 6.922-14.614 16.026s6.602 15.972 14.614 15.972c3.753 0 7.028-1.438 9.423-3.94v1.97c0 .719.586 1.33 1.331 1.33h4.872c.719 0 1.331-.585 1.331-1.33V50.418c0-.72-.586-1.331-1.331-1.331ZM375.391 61.066l9.583-10.036c.693-.719.187-1.943-.825-1.943h-7.081c-.692 0-1.357.292-1.81.798l-9.343 10.355V39.77c0-.746-.586-1.331-1.331-1.331h-5.191c-.745 0-1.331.585-1.331 1.33v38.706c0 .719.586 1.33 1.331 1.33h5.217c.719 0 1.331-.585 1.331-1.33v-7.507l3.94-4.1 6.921 11.74a2.404 2.404 0 0 0 2.103 1.198h6.389c.958 0 1.544-1.065 1.011-1.864l-10.887-16.85-.027-.026ZM108.821 39.743c0-.718-.585-1.33-1.331-1.33h-5.244c-.718 0-1.331.585-1.331 1.304v15.705H83.24V39.717a1.29 1.29 0 0 0-1.278-1.331h-5.297c-.719 0-1.331.585-1.331 1.33v38.732c0 .72.585 1.331 1.33 1.331h5.298c.719 0 1.331-.585 1.331-1.33V62.742h17.622v15.705a1.354 1.354 0 0 0 1.358 1.305h5.244c.719 0 1.331-.586 1.331-1.331V39.69l-.027.053ZM160.144 73.178c-4.339 0-7.852-3.754-7.852-8.652s3.513-8.81 7.852-8.81 7.88 3.939 7.88 8.81c0 4.872-3.514 8.652-7.88 8.652Zm15.733-33.435c0-.718-.586-1.33-1.331-1.33h-5.244c-.719 0-1.331.585-1.331 1.33v12.272c-2.396-2.263-5.484-3.567-9.051-3.567-7.986 0-14.614 6.921-14.614 16.025s6.628 15.972 14.614 15.972c3.753 0 6.974-1.438 9.423-3.94v1.97c0 .719.586 1.331 1.331 1.331h4.872c.718 0 1.331-.585 1.331-1.33V39.742ZM196.959 48.368c-3.274-.186-6.442 1.012-8.651 3.78v-1.73c0-.719-.586-1.331-1.331-1.331h-4.871c-.719 0-1.331.585-1.331 1.33v28.058c0 .719.585 1.331 1.331 1.331h5.217c.719 0 1.331-.586 1.331-1.331V64.713c0-2.45.293-4.952 1.97-6.682 1.517-1.624 3.647-2.13 6.176-2.023.745.026 1.384-.56 1.384-1.304v-5.005c0-.692-.533-1.278-1.251-1.33M214.422 73.284c-4.179 0-7.56-3.567-7.56-8.758 0-5.19 3.407-8.997 7.56-8.997s7.56 3.7 7.56 8.997c0 5.298-3.407 8.758-7.56 8.758Zm0-24.97c-8.518 0-15.44 6.975-15.44 16.159s6.922 16.025 15.44 16.025 15.493-6.868 15.493-16.025c0-9.157-6.975-16.158-15.493-16.158ZM142.682 49.087h-4.872a1.76 1.76 0 0 0-1.623 1.118L128.68 69.77l-7.507-19.565a1.76 1.76 0 0 0-1.624-1.118h-4.871c-.932 0-1.571.931-1.225 1.783l11.26 29.309-.931 2.448c-1.172 3.035-2.795 4.18-5.857 4.26-.718 0-1.304.585-1.304 1.304v4.552c0 .719.559 1.304 1.278 1.331 5.776.186 9.929-1.145 12.857-8.705l13.23-34.499c.32-.852-.319-1.783-1.224-1.783M158.148 110.765h-2.582l-3.408-11.287-3.407 11.287h-2.582l-4.525-15.173h2.528l3.328 11.446 3.487-11.446h2.343l3.487 11.446 3.327-11.446h2.556l-4.552 15.173ZM174.412 105.707h-9.104c.24 2.076 1.757 3.327 3.408 3.327 1.251 0 2.502-.372 3.301-1.943l2.103.453c-.932 2.342-2.929 3.54-5.404 3.54-3.062 0-5.723-2.342-5.723-5.909 0-3.567 2.661-5.963 5.829-5.963 3.168 0 5.511 2.316 5.617 5.67v.825h-.027Zm-9.05-1.677h6.601c-.372-1.837-1.65-2.742-3.194-2.742s-3.061.932-3.407 2.742ZM199.249 110.765h-2.343v-10.036l-5.377 10.036h-1.145l-5.377-10.036v10.036h-2.342V95.592h2.129l6.176 11.473 6.202-11.473h2.103v15.173h-.026ZM213.81 110.765h-2.343v-1.305c-.985 1.012-2.369 1.598-4.073 1.598-2.954 0-5.563-2.37-5.563-5.937s2.635-5.936 5.563-5.936c1.704 0 3.115.586 4.073 1.597v-1.304h2.343v11.287Zm-2.343-5.617c0-2.343-1.837-3.86-3.7-3.86-2.05 0-3.674 1.491-3.674 3.86 0 2.369 1.598 3.86 3.674 3.86 1.863 0 3.7-1.464 3.7-3.86ZM225.629 110.765l-5.191-4.659h-.666v4.659h-2.342V94.473h2.342v9.317h.693l4.685-4.232h3.008l-5.883 5.43 6.548 5.803h-3.194v-.026ZM240.509 105.707h-9.104c.24 2.076 1.757 3.327 3.408 3.327 1.251 0 2.502-.372 3.3-1.943l2.103.453c-.931 2.342-2.928 3.54-5.403 3.54-3.062 0-5.724-2.342-5.724-5.909 0-3.567 2.662-5.963 5.83-5.963s5.51 2.316 5.617 5.67v.825h-.027Zm-9.024-1.677h6.602c-.373-1.837-1.651-2.742-3.195-2.742-1.543 0-3.061.932-3.407 2.742ZM248.708 110.765V95.592h2.422v15.173h-2.422ZM262.204 110.206c-1.065.638-1.836.851-2.795.851-2.422 0-4.046-1.357-4.046-4.152v-5.457h-2.422v-1.944h2.422v-3.487h2.343v3.487h3.859v1.944h-3.859v5.297c0 1.411.745 2.076 1.863 2.076.586 0 1.304-.239 1.89-.612l.719 1.97.026.027ZM267.102 109.407c0 .825-.612 1.437-1.464 1.437s-1.491-.638-1.491-1.437c0-.772.639-1.438 1.491-1.438.852 0 1.464.666 1.464 1.438ZM279.64 110.765h-2.422v-5.031l-6.123-10.142h2.689l4.658 7.613 4.632-7.613h2.795l-6.229 10.088v5.085ZM296.357 105.148c0 3.487-2.688 5.883-5.989 5.883-3.301 0-6.043-2.396-6.043-5.883s2.715-5.856 6.043-5.856c3.327 0 5.989 2.369 5.989 5.856Zm-2.289 0c0-2.343-1.783-3.86-3.7-3.86-1.917 0-3.727 1.517-3.727 3.86s1.757 3.86 3.727 3.86 3.7-1.517 3.7-3.86ZM309.454 110.765h-2.342v-1.385c-.905 1.092-2.21 1.704-3.86 1.704-2.715 0-4.499-1.943-4.499-4.791v-6.762h2.343v6.282c0 1.837 1.064 3.088 2.688 3.088 2.023 0 3.328-1.357 3.328-4.179v-5.19h2.342v11.233ZM333.758 103.178c0 4.392-3.487 7.88-7.933 7.88-4.445 0-7.906-3.488-7.906-7.88 0-4.392 3.461-7.933 7.906-7.933 4.446 0 7.933 3.514 7.933 7.933Zm-2.449 0c0-3.22-2.396-5.643-5.484-5.643-3.087 0-5.457 2.422-5.457 5.643 0 3.221 2.396 5.59 5.457 5.59 3.062 0 5.484-2.396 5.484-5.59ZM348.372 110.791h-2.156l-2.582-7.56-2.582 7.56h-2.156l-3.754-11.287h2.343l2.555 7.8 2.662-7.8h1.864l2.662 7.8 2.555-7.8h2.343l-3.754 11.287ZM365.01 103.95v6.788h-2.369v-6.309c0-1.837-1.065-3.061-2.662-3.061-2.024 0-3.355 1.358-3.355 4.179v5.191h-2.342V99.505h2.342v1.384c.906-1.092 2.21-1.704 3.887-1.704 2.689 0 4.499 1.943 4.499 4.765ZM373.901 110.765V95.592h2.422v15.173h-2.422ZM387.37 110.206c-1.065.638-1.837.851-2.795.851-2.422 0-4.046-1.357-4.046-4.152v-5.457h-2.422v-1.944h2.422v-3.487h2.342v3.487h3.86v1.944h-3.86v5.297c0 1.411.746 2.076 1.864 2.076.585 0 1.304-.239 1.89-.612l.719 1.97.026.027ZM392.295 109.407c0 .825-.612 1.437-1.464 1.437s-1.491-.638-1.491-1.437c0-.772.639-1.438 1.491-1.438.852 0 1.464.666 1.464 1.438ZM390.085 94.18v2.503h-.718V94.18h-1.012v-.613h2.742v.613h-1.038.026Zm4.233 2.503v-1.837l-.852 1.81h-.426l-.852-1.81v1.837h-.665v-3.088h.772l.958 1.97.958-1.97h.772v3.088h-.665Z"></path>
    </g>
    <defs>
        <clipPath id="a">
            <path fill="#fff" d="M0 0h399.562v111.084H0z"></path>
        </clipPath>
    </defs>
</svg>