<?xml version="1.0" encoding="utf-8"?>
<!-- Generator: Adobe Illustrator 22.1.0, SVG Export Plug-In . SVG Version: 6.00 Build 0)  -->
<svg version="1.1" id="Layer_1" xmlns="http://www.w3.org/2000/svg" xmlns:xlink="http://www.w3.org/1999/xlink" x="0px" y="0px"
	 viewBox="0 0 520 178" style="enable-background:new 0 0 520 178;" xml:space="preserve">
<g>
	<path d="M69.9,63.7c0.1,1.4,1.2,2.5,2.6,2.5c1.4,0,2.5-1.1,2.6-2.5L76.4,41c0.1-1.1-0.3-2.2-1.1-3c-0.8-0.8-1.8-1.1-2.8-1.1
		c-1,0-2,0.4-2.8,1.1c-0.8,0.8-1.2,1.9-1.1,3L69.9,63.7z"/>
	<path d="M84,75.7c-1.2-0.7-2.8-0.3-3.6,1v0c-1.6,2.8-4.6,4.6-8,4.6c-3.4,0-6.4-1.9-8-4.6l0,0c-0.7-1.2-2.3-1.7-3.6-1
		c-1.2,0.7-1.7,2.3-1,3.6l0,0c2.5,4.3,7.2,7.2,12.5,7.2c5.4,0,10-2.9,12.5-7.2v0C85.7,78.1,85.3,76.5,84,75.7"/>
	<path d="M61.8,65.9c0.4,1.3,1.8,2.1,3.1,1.7c1.3-0.4,2.2-1.7,1.9-3.1l-4.1-19.8c-0.2-1-0.8-1.9-1.8-2.5c-0.9-0.5-1.9-0.6-2.9-0.4
		c-0.9,0.2-1.8,0.9-2.3,1.8c-0.6,1-0.6,2.1-0.3,3.1L61.8,65.9z"/>
	<path d="M54.9,70.4c0.8,1.2,2.3,1.5,3.5,0.8c1.2-0.7,1.7-2.2,1-3.4l-8-15.9C51,51,50.2,50.3,49.1,50c-1-0.3-1.9-0.1-2.7,0.4
		c-0.8,0.5-1.4,1.2-1.7,2.2c-0.3,1-0.1,2.1,0.5,2.9L54.9,70.4z"/>
	<path d="M80,67.6c1.3,0.4,2.7-0.4,3.1-1.7l6.4-19.2c0.3-1,0.2-2.1-0.3-3.1c-0.5-0.9-1.4-1.5-2.3-1.8c-0.9-0.2-2-0.1-2.9,0.4
		c-1,0.6-1.6,1.5-1.8,2.5l-4.1,19.8C77.9,65.9,78.7,67.2,80,67.6"/>
	<path d="M86.5,71.2c1.2,0.7,2.7,0.3,3.5-0.8l9.8-14.9c0.6-0.8,0.8-1.9,0.5-2.9c-0.3-1-0.9-1.7-1.7-2.2c-0.8-0.5-1.8-0.6-2.7-0.4
		c-1,0.3-1.9,1-2.3,1.9l-8,15.9C84.9,69,85.4,70.6,86.5,71.2"/>
	<path d="M107.3,132.7l-13.9-18.5c-2.5-3.3-4-7.5-4-11.8c0-4.4,1.5-8.5,4-11.8L107.3,72c1.4-2.5,0.6-5.7-1.9-7.1
		c-2.5-1.4-5.7-0.6-7.1,1.9l-8.7,15.1c-3.7,6.3-10.3,9.9-17.1,9.8c-6.8,0-13.5-3.5-17.1-9.8l-8.7-15.1c-1.4-2.5-4.6-3.3-7.1-1.9
		c-2.5,1.4-3.3,4.6-1.9,7.1l13.9,18.5c2.5,3.3,4,7.5,4,11.8c0,4.4-1.5,8.5-4,11.8l-13.9,18.5c-1.4,2.5-0.6,5.7,1.9,7.1
		c2.5,1.4,5.7,0.6,7.1-1.9l8.7-15.1c3.7-6.3,10.3-9.9,17.1-9.8c6.8,0,13.5,3.5,17.1,9.8l8.7,15.1c1.4,2.5,4.6,3.3,7.1,1.9
		C107.9,138.3,108.7,135.1,107.3,132.7"/>
</g>
<g>
	<path d="M477.9,94.7c0.5,0,1-0.3,1-1c0-0.7-0.4-1-1-1h-1.9v2H477.9z M480.2,98.1h-1.4l-1.2-2.2h-1.6v2.2h-1.2v-6.4h3.1
		c1.4,0,2.2,0.8,2.2,2.1c0,0.9-0.5,1.7-1.3,1.9L480.2,98.1z M477.2,90.3c-2.6,0-4.7,2.1-4.7,4.7c0,2.6,2.1,4.8,4.7,4.8
		c2.6,0,4.7-2.1,4.7-4.8C481.9,92.4,479.8,90.3,477.2,90.3 M477.2,100.8c-3.2,0-5.8-2.6-5.8-5.8c0-3.2,2.6-5.8,5.8-5.8
		c3.2,0,5.8,2.6,5.8,5.8C483.1,98.2,480.4,100.8,477.2,100.8"/>
	<g>
		<path d="M417.6,104.4c-4.3-0.7-6.8-1.3-6.8-3.1c0-1.3,1.7-2.7,5.7-2.7c2.4,0,4.1,0.7,5,1.7c0.7,0.7,1.7,0.9,2.6,0.7l5.1-1.4
			c0.8-0.2,1.2-1.1,0.8-1.8c-2.4-4.3-7.3-7-13.5-7c-9.9,0-14.6,5.6-14.6,11c0,7.7,8.2,9.3,14.3,10.2c6,0.9,7.2,1.7,7.2,3.7
			c0,2-2.7,3.1-6.2,3.1c-2.1,0-4.8-0.7-6.4-2.5c-0.7-0.8-1.8-1.2-2.8-0.9l-5.1,1.4c-0.8,0.2-1.2,1.1-0.9,1.8c2.4,5.2,8,8.3,15.2,8.3
			c8.8,0,15-4.8,15-11.6C432.2,107.7,426.1,105.8,417.6,104.4"/>
		<path d="M338.2,98.9h-18.4v-11h22.8c0.8,0,1.5-0.7,1.5-1.5v-5.2c0-0.8-0.7-1.5-1.5-1.5h-30.1c-0.8,0-1.5,0.7-1.5,1.5v43.2
			c0,0.8,0.7,1.5,1.5,1.5h5.8c0.8,0,1.5-0.7,1.5-1.5v-17.4h18.4c0.8,0,1.5-0.7,1.5-1.5v-5.2C339.7,99.6,339,98.9,338.2,98.9"/>
		<path d="M357.3,81.2c0-0.8-0.7-1.5-1.5-1.5H350c-0.8,0-1.5,0.7-1.5,1.5v43.2c0,0.8,0.7,1.5,1.5,1.5h5.8c0.8,0,1.5-0.7,1.5-1.5
			V81.2z"/>
		<path d="M379.3,118.5c-4.9,0-8.8-4.2-8.8-9.6c0-5.6,3.9-9.8,8.8-9.8c4.9,0,8.8,4.4,8.8,9.8C388.1,114.2,384.2,118.5,379.3,118.5
			 M395.4,91.6h-5.4c-0.8,0-1.5,0.7-1.5,1.5v2.2c-2.7-2.8-6.3-4.4-10.5-4.4c-8.9,0-16.3,7.7-16.3,17.9c0,10.1,7.4,17.8,16.3,17.8
			c4.2,0,7.9-1.6,10.5-4.4v2.2c0,0.8,0.7,1.5,1.5,1.5h5.4c0.8,0,1.5-0.7,1.5-1.5V93.1C396.9,92.3,396.2,91.6,395.4,91.6"/>
		<path d="M456.1,105l10.7-11.2c0.8-0.8,0.2-2.2-0.9-2.2h-7.9c-0.8,0-1.5,0.3-2,0.9l-10.4,11.5V81.2c0-0.8-0.7-1.5-1.5-1.5h-5.8
			c-0.8,0-1.5,0.7-1.5,1.5v43.2c0,0.8,0.7,1.5,1.5,1.5h5.8c0.8,0,1.5-0.7,1.5-1.5v-8.4l4.4-4.6l7.7,13.1c0.5,0.8,1.4,1.3,2.3,1.3
			h7.1c1.1,0,1.7-1.2,1.1-2.1L456.1,105z"/>
	</g>
	<g>
		<path d="M158.4,81.2c0-0.8-0.7-1.5-1.5-1.5h-5.8c-0.8,0-1.5,0.7-1.5,1.5l0,17.5h-19.7l0-17.5c0-0.8-0.7-1.5-1.5-1.5h-5.9
			c-0.8,0-1.5,0.7-1.5,1.5v43.2c0,0.8,0.7,1.5,1.5,1.5h5.9c0.8,0,1.5-0.7,1.5-1.5l0-17.5h19.7l0,17.5c0,0.8,0.7,1.5,1.5,1.5h5.8
			c0.8,0,1.5-0.7,1.5-1.5V81.2z"/>
		<path d="M215.7,118.5c-4.9,0-8.8-4.2-8.8-9.6c0-5.6,3.9-9.8,8.8-9.8c4.9,0,8.8,4.4,8.8,9.8C224.5,114.2,220.6,118.5,215.7,118.5
			 M233.3,81.2c0-0.8-0.7-1.5-1.5-1.5H226c-0.8,0-1.5,0.7-1.5,1.5v13.7c-2.7-2.5-6.1-4-10.1-4c-8.9,0-16.3,7.7-16.3,17.9
			c0,10.1,7.4,17.8,16.3,17.8c4.2,0,7.8-1.6,10.5-4.4v2.2c0,0.8,0.7,1.5,1.5,1.5h5.4c0.8,0,1.5-0.7,1.5-1.5V81.2z"/>
		<path d="M256.9,90.8c-3.6-0.2-7.2,1.1-9.7,4.2v-1.9c0-0.8-0.7-1.5-1.5-1.5h-5.4c-0.8,0-1.5,0.7-1.5,1.5v31.3
			c0,0.8,0.7,1.5,1.5,1.5h5.8c0.8,0,1.5-0.7,1.5-1.5v-15.4c0-2.7,0.3-5.5,2.2-7.5c1.7-1.8,4.1-2.4,6.9-2.3c0.8,0,1.6-0.6,1.6-1.5
			v-5.6C258.2,91.5,257.6,90.9,256.9,90.8"/>
		<path d="M276.3,118.7c-4.7,0-8.5-4-8.5-9.8c0-5.9,3.8-10,8.5-10c4.7,0,8.5,4.1,8.5,10C284.8,114.7,281,118.7,276.3,118.7
			 M276.3,90.8c-9.5,0-17.2,7.8-17.2,18c0,10.2,7.7,17.9,17.2,17.9c9.5,0,17.3-7.7,17.3-17.9C293.6,98.6,285.9,90.8,276.3,90.8"/>
		<path d="M196.2,91.6h-5.4c-0.8,0-1.5,0.5-1.8,1.2l-8.4,21.9l-8.4-21.9c-0.3-0.8-1-1.2-1.8-1.2h-5.4c-1,0-1.7,1-1.4,2l12.6,32.7
			l-1.1,2.7c-1.3,3.4-3.1,4.7-6.5,4.8c-0.8,0-1.5,0.7-1.5,1.5v5.1c0,0.8,0.6,1.5,1.4,1.5c6.4,0.2,11.1-1.3,14.3-9.7l14.8-38.5
			C198,92.7,197.3,91.6,196.2,91.6"/>
	</g>
</g>
</svg>
